# xmcd CD database file
#
# Track frame offsets:
#	150
#	7560
#	31227
#	38487
#	58717
#	80115
#	85997
#	103710
#	123067
#	142347
#	161022
#	168832
#	187462
#
# Disc length: 2769 seconds
#
# Revision: 9
# Processed by: cddbd v1.5.2PL0 Copyright (c) Steve Scherf et al.
# Submitted via: CDex 1.86
#
DISCID=a40acf0d
DTITLE=Janis Joplin - Early Performances CD1
DYEAR=1975
DGENRE=Rock
TTITLE0=71 Mercedes Benz (Pearl)
TTITLE1=69 Ball And Chain (Live in Frankfurt, Germany)
TTITLE2=70 Rap On "Try" (Live in Toronto)
TTITLE3=70 Try (Just A Little Bit Harder)(Live in Toronto)
TTITLE4=69 Summertime (Live in Frankfurt, Germany)
TTITLE5=69 Albert Hall Interview (Live in Frankfurt, Germany)
TTITLE6=68 Cry Baby (Pearl)
TTITLE7=70 Move Over (Dick Cavett Show)
TTITLE8=70 Dick Cavett T.V. Interview
TTITLE9=68 Piece Of My Heart (Cheap Thrills)
TTITLE10=69 Port Arthur High School Reunion (KJAC TV)
TTITLE11=69 Maybe (Live in Frankfurt, Germany)
TTITLE12=71 Me And Bobby McGee (Pearl)
EXTD=YEAR: 1975
EXTT0=
EXTT1=
EXTT2=
EXTT3=
EXTT4=
EXTT5=
EXTT6=
EXTT7=
EXTT8=
EXTT9=
EXTT10=
EXTT11=
EXTT12=
PLAYORDER=
